<mxfile host="app.diagrams.net" modified="2024-03-07T09:10:11.109Z" agent="Mozilla/5.0 (Windows NT 10.0; Win64; x64) AppleWebKit/537.36 (KHTML, like Gecko) Chrome/122.0.0.0 Safari/537.36" etag="mq9BHpcQbglhhpsbwl1R" version="24.0.1" type="device">
  <diagram name="Страница — 1" id="kfxAFMkqVUG1HZ9h6khj">
    <mxGraphModel dx="2117" dy="1699" grid="0" gridSize="10" guides="1" tooltips="1" connect="1" arrows="1" fold="1" page="1" pageScale="1" pageWidth="827" pageHeight="1169" math="0" shadow="0">
      <root>
        <mxCell id="0" />
        <mxCell id="1" parent="0" />
        <mxCell id="HUqOLofMIyzFOh7bs3RX-1" value="Пользователь 1 lvl" style="shape=umlActor;verticalLabelPosition=bottom;verticalAlign=top;html=1;outlineConnect=0;" vertex="1" parent="1">
          <mxGeometry x="96" y="351" width="30" height="60" as="geometry" />
        </mxCell>
        <mxCell id="HUqOLofMIyzFOh7bs3RX-2" value="Пользователь 2 lvl" style="shape=umlActor;verticalLabelPosition=bottom;verticalAlign=top;html=1;outlineConnect=0;" vertex="1" parent="1">
          <mxGeometry x="96" y="224" width="30" height="60" as="geometry" />
        </mxCell>
        <mxCell id="HUqOLofMIyzFOh7bs3RX-3" value="Пользователь 3 lvl" style="shape=umlActor;verticalLabelPosition=bottom;verticalAlign=top;html=1;outlineConnect=0;" vertex="1" parent="1">
          <mxGeometry x="96" y="97" width="30" height="60" as="geometry" />
        </mxCell>
        <mxCell id="HUqOLofMIyzFOh7bs3RX-4" value="Клиент&lt;div&gt;&lt;br&gt;&lt;/div&gt;" style="shape=umlActor;verticalLabelPosition=bottom;verticalAlign=top;html=1;outlineConnect=0;" vertex="1" parent="1">
          <mxGeometry x="678" y="97" width="30" height="60" as="geometry" />
        </mxCell>
        <mxCell id="HUqOLofMIyzFOh7bs3RX-5" value="Создание проекта" style="ellipse;whiteSpace=wrap;html=1;" vertex="1" parent="1">
          <mxGeometry x="342" y="87" width="120" height="80" as="geometry" />
        </mxCell>
        <mxCell id="HUqOLofMIyzFOh7bs3RX-6" value="" style="endArrow=none;html=1;rounded=0;" edge="1" parent="1" source="HUqOLofMIyzFOh7bs3RX-5" target="HUqOLofMIyzFOh7bs3RX-4">
          <mxGeometry width="50" height="50" relative="1" as="geometry">
            <mxPoint x="515" y="191" as="sourcePoint" />
            <mxPoint x="565" y="141" as="targetPoint" />
          </mxGeometry>
        </mxCell>
        <mxCell id="HUqOLofMIyzFOh7bs3RX-7" value="" style="endArrow=none;html=1;rounded=0;" edge="1" parent="1" source="HUqOLofMIyzFOh7bs3RX-3" target="HUqOLofMIyzFOh7bs3RX-5">
          <mxGeometry width="50" height="50" relative="1" as="geometry">
            <mxPoint x="225" y="247" as="sourcePoint" />
            <mxPoint x="275" y="197" as="targetPoint" />
          </mxGeometry>
        </mxCell>
        <mxCell id="HUqOLofMIyzFOh7bs3RX-8" value="Деление проекта на задачи" style="ellipse;whiteSpace=wrap;html=1;" vertex="1" parent="1">
          <mxGeometry x="-153" y="167" width="120" height="80" as="geometry" />
        </mxCell>
        <mxCell id="HUqOLofMIyzFOh7bs3RX-9" value="Присвоение работы" style="ellipse;whiteSpace=wrap;html=1;" vertex="1" parent="1">
          <mxGeometry x="342" y="214" width="120" height="80" as="geometry" />
        </mxCell>
        <mxCell id="HUqOLofMIyzFOh7bs3RX-10" value="" style="endArrow=none;html=1;rounded=0;" edge="1" parent="1" source="HUqOLofMIyzFOh7bs3RX-9" target="HUqOLofMIyzFOh7bs3RX-3">
          <mxGeometry width="50" height="50" relative="1" as="geometry">
            <mxPoint x="204" y="250" as="sourcePoint" />
            <mxPoint x="254" y="200" as="targetPoint" />
          </mxGeometry>
        </mxCell>
        <mxCell id="HUqOLofMIyzFOh7bs3RX-11" value="" style="endArrow=none;html=1;rounded=0;" edge="1" parent="1" source="HUqOLofMIyzFOh7bs3RX-1" target="HUqOLofMIyzFOh7bs3RX-9">
          <mxGeometry width="50" height="50" relative="1" as="geometry">
            <mxPoint x="290" y="411" as="sourcePoint" />
            <mxPoint x="340" y="361" as="targetPoint" />
          </mxGeometry>
        </mxCell>
        <mxCell id="HUqOLofMIyzFOh7bs3RX-12" value="" style="endArrow=none;html=1;rounded=0;" edge="1" parent="1" source="HUqOLofMIyzFOh7bs3RX-2" target="HUqOLofMIyzFOh7bs3RX-9">
          <mxGeometry width="50" height="50" relative="1" as="geometry">
            <mxPoint x="183" y="305" as="sourcePoint" />
            <mxPoint x="233" y="255" as="targetPoint" />
          </mxGeometry>
        </mxCell>
        <mxCell id="HUqOLofMIyzFOh7bs3RX-13" value="Деление задач на подзадачи" style="ellipse;whiteSpace=wrap;html=1;" vertex="1" parent="1">
          <mxGeometry x="-153" y="294" width="120" height="80" as="geometry" />
        </mxCell>
        <mxCell id="HUqOLofMIyzFOh7bs3RX-14" value="" style="endArrow=none;html=1;rounded=0;" edge="1" parent="1" source="HUqOLofMIyzFOh7bs3RX-8" target="HUqOLofMIyzFOh7bs3RX-3">
          <mxGeometry width="50" height="50" relative="1" as="geometry">
            <mxPoint x="-22" y="165" as="sourcePoint" />
            <mxPoint x="28" y="115" as="targetPoint" />
          </mxGeometry>
        </mxCell>
        <mxCell id="HUqOLofMIyzFOh7bs3RX-15" value="" style="endArrow=none;html=1;rounded=0;" edge="1" parent="1" source="HUqOLofMIyzFOh7bs3RX-13" target="HUqOLofMIyzFOh7bs3RX-2">
          <mxGeometry width="50" height="50" relative="1" as="geometry">
            <mxPoint x="-16" y="311" as="sourcePoint" />
            <mxPoint x="34" y="261" as="targetPoint" />
          </mxGeometry>
        </mxCell>
        <mxCell id="HUqOLofMIyzFOh7bs3RX-16" value="" style="endArrow=classic;html=1;rounded=0;" edge="1" parent="1" source="HUqOLofMIyzFOh7bs3RX-8" target="HUqOLofMIyzFOh7bs3RX-9">
          <mxGeometry width="50" height="50" relative="1" as="geometry">
            <mxPoint x="-20" y="256" as="sourcePoint" />
            <mxPoint x="30" y="206" as="targetPoint" />
            <Array as="points">
              <mxPoint x="166" y="203" />
            </Array>
          </mxGeometry>
        </mxCell>
        <mxCell id="HUqOLofMIyzFOh7bs3RX-17" value="" style="endArrow=classic;html=1;rounded=0;" edge="1" parent="1" source="HUqOLofMIyzFOh7bs3RX-13" target="HUqOLofMIyzFOh7bs3RX-9">
          <mxGeometry width="50" height="50" relative="1" as="geometry">
            <mxPoint x="32" y="378" as="sourcePoint" />
            <mxPoint x="82" y="328" as="targetPoint" />
            <Array as="points">
              <mxPoint x="157" y="324" />
            </Array>
          </mxGeometry>
        </mxCell>
        <mxCell id="HUqOLofMIyzFOh7bs3RX-18" value="Отчёт о выполнении работы" style="ellipse;whiteSpace=wrap;html=1;" vertex="1" parent="1">
          <mxGeometry x="342" y="341" width="120" height="80" as="geometry" />
        </mxCell>
        <mxCell id="HUqOLofMIyzFOh7bs3RX-19" value="" style="endArrow=none;html=1;rounded=0;" edge="1" parent="1" source="HUqOLofMIyzFOh7bs3RX-1" target="HUqOLofMIyzFOh7bs3RX-18">
          <mxGeometry width="50" height="50" relative="1" as="geometry">
            <mxPoint x="208" y="421" as="sourcePoint" />
            <mxPoint x="258" y="371" as="targetPoint" />
          </mxGeometry>
        </mxCell>
        <mxCell id="HUqOLofMIyzFOh7bs3RX-20" value="Работа над проектом" style="ellipse;whiteSpace=wrap;html=1;" vertex="1" parent="1">
          <mxGeometry x="342" y="-40" width="120" height="80" as="geometry" />
        </mxCell>
        <mxCell id="HUqOLofMIyzFOh7bs3RX-22" value="" style="endArrow=classic;html=1;rounded=0;" edge="1" parent="1" source="HUqOLofMIyzFOh7bs3RX-20" target="HUqOLofMIyzFOh7bs3RX-18">
          <mxGeometry width="50" height="50" relative="1" as="geometry">
            <mxPoint x="558" y="347" as="sourcePoint" />
            <mxPoint x="608" y="297" as="targetPoint" />
            <Array as="points">
              <mxPoint x="541" />
              <mxPoint x="543" y="381" />
            </Array>
          </mxGeometry>
        </mxCell>
        <mxCell id="HUqOLofMIyzFOh7bs3RX-23" value="takes" style="edgeLabel;html=1;align=center;verticalAlign=middle;resizable=0;points=[];" vertex="1" connectable="0" parent="HUqOLofMIyzFOh7bs3RX-22">
          <mxGeometry x="0.3153" y="-2" relative="1" as="geometry">
            <mxPoint as="offset" />
          </mxGeometry>
        </mxCell>
        <mxCell id="HUqOLofMIyzFOh7bs3RX-27" value="&lt;font style=&quot;font-size: 24px;&quot;&gt;*&lt;/font&gt;" style="text;html=1;align=center;verticalAlign=middle;whiteSpace=wrap;rounded=0;" vertex="1" parent="1">
          <mxGeometry x="131" y="107" width="60" height="30" as="geometry" />
        </mxCell>
        <mxCell id="HUqOLofMIyzFOh7bs3RX-28" value="&lt;font style=&quot;font-size: 24px;&quot;&gt;*&lt;/font&gt;" style="text;html=1;align=center;verticalAlign=middle;whiteSpace=wrap;rounded=0;" vertex="1" parent="1">
          <mxGeometry x="292" y="107" width="60" height="30" as="geometry" />
        </mxCell>
        <mxCell id="HUqOLofMIyzFOh7bs3RX-29" value="&lt;font style=&quot;font-size: 24px;&quot;&gt;*&lt;/font&gt;" style="text;html=1;align=center;verticalAlign=middle;whiteSpace=wrap;rounded=0;" vertex="1" parent="1">
          <mxGeometry x="466" y="112" width="60" height="30" as="geometry" />
        </mxCell>
        <mxCell id="HUqOLofMIyzFOh7bs3RX-31" value="&lt;font style=&quot;font-size: 24px;&quot;&gt;*&lt;/font&gt;" style="text;html=1;align=center;verticalAlign=middle;whiteSpace=wrap;rounded=0;" vertex="1" parent="1">
          <mxGeometry x="618" y="112" width="60" height="30" as="geometry" />
        </mxCell>
        <mxCell id="HUqOLofMIyzFOh7bs3RX-32" value="&lt;font style=&quot;font-size: 24px;&quot;&gt;*&lt;/font&gt;" style="text;html=1;align=center;verticalAlign=middle;whiteSpace=wrap;rounded=0;" vertex="1" parent="1">
          <mxGeometry x="141" y="131" width="60" height="30" as="geometry" />
        </mxCell>
        <mxCell id="HUqOLofMIyzFOh7bs3RX-33" value="&lt;font style=&quot;font-size: 24px;&quot;&gt;*&lt;/font&gt;" style="text;html=1;align=center;verticalAlign=middle;whiteSpace=wrap;rounded=0;" vertex="1" parent="1">
          <mxGeometry x="321" y="214" width="60" height="30" as="geometry" />
        </mxCell>
        <mxCell id="HUqOLofMIyzFOh7bs3RX-34" value="&lt;font style=&quot;font-size: 24px;&quot;&gt;*&lt;/font&gt;" style="text;html=1;align=center;verticalAlign=middle;whiteSpace=wrap;rounded=0;" vertex="1" parent="1">
          <mxGeometry x="112" y="347" width="60" height="30" as="geometry" />
        </mxCell>
        <mxCell id="HUqOLofMIyzFOh7bs3RX-35" value="&lt;font style=&quot;font-size: 24px;&quot;&gt;*&lt;/font&gt;" style="text;html=1;align=center;verticalAlign=middle;whiteSpace=wrap;rounded=0;" vertex="1" parent="1">
          <mxGeometry x="298" y="264" width="60" height="30" as="geometry" />
        </mxCell>
        <mxCell id="HUqOLofMIyzFOh7bs3RX-36" value="&lt;font style=&quot;font-size: 24px;&quot;&gt;*&lt;/font&gt;" style="text;html=1;align=center;verticalAlign=middle;whiteSpace=wrap;rounded=0;" vertex="1" parent="1">
          <mxGeometry x="46" y="244" width="60" height="30" as="geometry" />
        </mxCell>
        <mxCell id="HUqOLofMIyzFOh7bs3RX-37" value="&lt;font style=&quot;font-size: 24px;&quot;&gt;*&lt;/font&gt;" style="text;html=1;align=center;verticalAlign=middle;whiteSpace=wrap;rounded=0;" vertex="1" parent="1">
          <mxGeometry x="-63" y="292" width="60" height="30" as="geometry" />
        </mxCell>
        <mxCell id="HUqOLofMIyzFOh7bs3RX-38" value="&lt;font style=&quot;font-size: 24px;&quot;&gt;*&lt;/font&gt;" style="text;html=1;align=center;verticalAlign=middle;whiteSpace=wrap;rounded=0;" vertex="1" parent="1">
          <mxGeometry x="-63" y="167" width="60" height="30" as="geometry" />
        </mxCell>
        <mxCell id="HUqOLofMIyzFOh7bs3RX-39" value="&lt;font style=&quot;font-size: 24px;&quot;&gt;*&lt;/font&gt;" style="text;html=1;align=center;verticalAlign=middle;whiteSpace=wrap;rounded=0;" vertex="1" parent="1">
          <mxGeometry x="58" y="120" width="60" height="30" as="geometry" />
        </mxCell>
        <mxCell id="HUqOLofMIyzFOh7bs3RX-40" value="&lt;font style=&quot;font-size: 24px;&quot;&gt;*&lt;/font&gt;" style="text;html=1;align=center;verticalAlign=middle;whiteSpace=wrap;rounded=0;" vertex="1" parent="1">
          <mxGeometry x="126" y="369" width="60" height="30" as="geometry" />
        </mxCell>
        <mxCell id="HUqOLofMIyzFOh7bs3RX-41" value="&lt;font style=&quot;font-size: 24px;&quot;&gt;*&lt;/font&gt;" style="text;html=1;align=center;verticalAlign=middle;whiteSpace=wrap;rounded=0;" vertex="1" parent="1">
          <mxGeometry x="298" y="369" width="60" height="30" as="geometry" />
        </mxCell>
      </root>
    </mxGraphModel>
  </diagram>
</mxfile>
